<mxfile host="app.diagrams.net" modified="2021-10-06T04:44:46.828Z" agent="5.0 (Windows NT 10.0; Win64; x64) AppleWebKit/537.36 (KHTML, like Gecko) Chrome/94.0.4606.71 Safari/537.36" etag="RBTjgbc2BodiozD_mgtc" version="15.4.3" type="github">
  <diagram id="8k86YtaXPVGXOK-VqrHH" name="第 1 页">
    <mxGraphModel dx="1024" dy="472" grid="1" gridSize="10" guides="1" tooltips="1" connect="1" arrows="1" fold="1" page="1" pageScale="1" pageWidth="827" pageHeight="1169" math="0" shadow="0">
      <root>
        <mxCell id="0" />
        <mxCell id="1" parent="0" />
        <mxCell id="BxYgjyces-4VsuChtrK_-1" value="" style="whiteSpace=wrap;html=1;aspect=fixed;" vertex="1" parent="1">
          <mxGeometry x="200" y="790" width="80" height="80" as="geometry" />
        </mxCell>
        <mxCell id="BxYgjyces-4VsuChtrK_-2" value="" style="whiteSpace=wrap;html=1;aspect=fixed;" vertex="1" parent="1">
          <mxGeometry x="374" y="790" width="80" height="80" as="geometry" />
        </mxCell>
      </root>
    </mxGraphModel>
  </diagram>
</mxfile>
